<!-- Generator: Adobe Illustrator 24.1.1, SVG Export Plug-In  -->
<svg version="1.1" xmlns="http://www.w3.org/2000/svg" xmlns:xlink="http://www.w3.org/1999/xlink" x="0px" y="0px" width="243.8px"
	 height="348.7px" viewBox="0 0 243.8 348.7" style="enable-background:new 0 0 243.8 348.7;" xml:space="preserve">
<style type="text/css">
	.st0{fill:#B23E00;}
	.st1{fill:#FF5A00;}
	.st2{fill:#B28700;}
	.st3{fill:#FFC200;}
	.st4{fill:#0076B2;}
	.st5{fill:#00AAFF;}
	.st6{fill:#9A2530;}
	.st7{fill:#DC3545;}
	.st8{fill:#011D29;}
	.st9{fill:#022A3B;}
	.st10{fill:#4CC3FF;}
	.st11{fill:#FFE07F;}
</style>
<defs>
</defs>
<path class="st0" d="M104.2,81.5l-9-10l56-67c0,0,50.6,12.3,81.6,66.3L214.7,63l-77.9,15.8C136.8,78.7,119.7,73,104.2,81.5z"/>
<path class="st1" d="M95.2,71.5l56-67c-1.9-0.2,51.6,25.3,64.6,61.3l-61.6,67.8c0,0,0.4-0.9,0.8-2.6c9.7-34.3-20.3-66.9-55.4-60.4
	C98.2,70.8,96.7,71.1,95.2,71.5z"/>
<path class="st2" d="M64.2,107.5l19,7c0,0-6.4,37.3,24.6,54.3l-7.6,9.8l-47-42L64.2,107.5z"/>
<path class="st2" d="M63.2,106.5l19,7c0,0-6.4,37.3,24.6,54.3l-7.6,9.8l-47-42L63.2,106.5z"/>
<path class="st3" d="M129.8,163.7l-87,100c0,0-27-50-36.6-88.3l58-68c0,0-0.5,3.3-0.5,8.4c0,31.4,28.3,55.8,59.1,49.8
	C125.2,165.2,127.5,164.6,129.8,163.7z"/>
<path class="st4" d="M99.8,348.7l30.4-6.3c0,0,67-76,92-134c0,0,41-65,10-139l-18-8L99.8,348.7z"/>
<path class="st5" d="M214.2,61.5L157,129.1c-2,2.4-3.6,5-4.7,7.9c-2.9,7.4-10.5,22.5-25.5,27.7l-84,99c0,0,28,48,57,85
	c0.1-0.2,65.9-72.8,102.9-147.8C202.7,201,243.2,127.5,214.2,61.5z"/>
<path class="st6" d="M74.2,86.5l16,9c0,0-5.4,8.3-7,19l-19-7v-21H74.2z"/>
<path class="st7" d="M6.2,175.5c0,0-23.4-88.8,21-136l47,47c0,0-8,7-10,21L6.2,175.5z"/>
<path class="st8" d="M74.2,86.5c0,0,9-12,21-15l9,10c0,0-8.4,4.3-14,14L74.2,86.5z"/>
<path class="st9" d="M151.2,4.5c0,0-71-23-124,35l47,47c0,0,9-12,21-15L151.2,4.5z"/>
<g>
	<path class="st10" d="M112.3,334.2c5.9-7.7,11.8-15.3,17.6-23.1c5.8-7.8,11.4-15.6,17.1-23.5c5.6-7.9,11.1-15.9,16.4-23.9
		c5.4-8,10.6-16.1,15.7-24.4c5.1-8.2,10-16.5,14.6-25c4.7-8.5,9.1-17,13.1-25.8c4-8.8,7.7-17.7,10.7-26.9c3-9.2,5.2-18.6,5.8-28.3
		c-0.1,2.4-0.2,4.8-0.3,7.3c-0.3,2.4-0.6,4.8-0.9,7.2l-1.4,7.2l-1.8,7.1c-2.6,9.4-6.1,18.5-9.9,27.4c-7.7,17.9-17.2,34.9-27.4,51.4
		c-10.2,16.5-21.2,32.5-32.8,48.1C137.2,304.5,125.1,319.7,112.3,334.2z"/>
</g>
<g>
	<path class="st11" d="M122.8,165.7c-7,1.2-14.3,1-21.3-0.5c-3.5-0.7-7-1.8-10.3-3.3c-3.3-1.5-6.4-3.4-9.3-5.6
		c-5.7-4.5-10.2-10.4-13.1-17c-3-6.6-4.5-13.6-5-20.7c1.3,7,3.3,13.8,6.4,20c0.2,0.4,0.4,0.8,0.6,1.2l0.7,1.1
		c0.4,0.7,0.8,1.5,1.3,2.3c1,1.4,1.9,2.9,3,4.2c2.2,2.7,4.6,5.2,7.4,7.3c5.5,4.3,11.9,7.2,18.7,8.9c3.4,0.9,6.9,1.4,10.4,1.8
		C115.7,165.9,119.2,166,122.8,165.7z"/>
</g>
</svg>
