<svg width="60" height="60" viewBox="0 0 60 60" fill="none" xmlns="http://www.w3.org/2000/svg">
<path d="M30 0C13.434 0 0 13.434 0 30C0 46.566 13.434 60 30 60C46.566 60 60 46.566 60 30C60 13.434 46.566 0 30 0ZM21.2823 45.3516H13.976V23.3702H21.2823V45.3516ZM17.6294 20.3687H17.5818C15.13 20.3687 13.5443 18.6809 13.5443 16.5715C13.5443 14.4145 15.1785 12.7734 17.6779 12.7734C20.1773 12.7734 21.7154 14.4145 21.763 16.5715C21.763 18.6809 20.1773 20.3687 17.6294 20.3687ZM47.6276 45.3516H40.3221V33.5921C40.3221 30.6367 39.2642 28.6212 36.6206 28.6212C34.6024 28.6212 33.4003 29.9808 32.872 31.2932C32.6788 31.7628 32.6317 32.4193 32.6317 33.0762V45.3516H25.3258C25.3258 45.3516 25.4214 25.4324 25.3258 23.3702H32.6317V26.4825C33.6026 24.9847 35.3398 22.8543 39.2162 22.8543C44.0231 22.8543 47.6276 25.9959 47.6276 32.7475V45.3516Z" fill="white"/>
</svg>
